<?xml version="1.0" standalone="no"?>
<!DOCTYPE svg PUBLIC "-//W3C//DTD SVG 20010904//EN"
 "http://www.w3.org/TR/2001/REC-SVG-20010904/DTD/svg10.dtd">
<svg version="1.0" xmlns="http://www.w3.org/2000/svg"
 width="1243.000000pt" height="1051.000000pt" viewBox="0 0 1243.000000 1051.000000"
 preserveAspectRatio="xMidYMid meet">

<g transform="translate(0.000000,1051.000000) scale(0.100000,-0.100000)"
fill="#000000" stroke="none">
<path d="M9530 9710 c-67 -62 -76 -68 -91 -55 -14 14 -37 -7 -235 -207 -405
-412 -876 -959 -1619 -1883 -360 -447 -637 -785 -645 -785 -4 0 -30 35 -57 78
-279 432 -433 857 -433 1197 0 319 96 668 280 1022 104 200 263 455 284 457 5
1 15 -17 23 -39 18 -52 49 -83 96 -96 38 -10 38 -11 32 -47 -12 -73 8 -121 76
-186 150 -142 346 -185 779 -172 129 4 258 11 285 14 l50 7 -45 14 c-92 28
-167 77 -148 97 3 2 40 -3 84 -11 43 -8 88 -15 98 -15 20 0 20 0 0 15 -10 8
-35 15 -54 15 -56 1 -122 19 -170 48 -36 21 -41 27 -26 30 16 3 13 7 -15 17
-163 61 -384 165 -462 218 -55 37 -170 70 -221 65 -47 -6 -66 4 -66 33 0 20
-35 65 -62 80 -16 9 -19 8 -13 -2 5 -7 1 -18 -11 -26 -18 -14 -18 -15 -1 -24
22 -13 10 -32 -36 -55 -32 -17 -57 -12 -57 11 0 12 -4 13 -18 6 -24 -13 -42 4
-42 39 0 29 15 51 45 69 18 11 18 11 -5 6 -14 -4 -38 -16 -55 -28 -27 -20 -47
-23 -215 -28 -102 -4 -225 -12 -275 -18 -154 -19 -553 -90 -705 -126 -80 -19
-248 -53 -375 -75 -126 -23 -252 -46 -280 -51 -92 -18 -279 -37 -397 -41 -65
-1 -118 -6 -118 -10 0 -4 26 -27 58 -51 59 -46 202 -189 202 -202 0 -5 -8 -1
-18 8 -10 10 -22 14 -27 10 -4 -5 -5 -2 -1 5 4 7 2 12 -6 12 -8 0 -21 8 -29
18 -40 44 -165 143 -234 184 -108 64 -291 148 -323 148 -18 0 -219 -177 -298
-263 -126 -138 -255 -365 -320 -565 -72 -219 -90 -382 -75 -667 18 -333 58
-520 193 -905 175 -497 214 -622 262 -840 53 -239 119 -593 135 -725 4 -31 9
-44 13 -34 3 9 2 36 -3 59 -7 31 -7 45 2 50 8 6 8 13 0 28 -6 11 -11 45 -11
74 0 30 -4 58 -9 64 -15 16 -22 86 -8 81 7 -2 15 -21 19 -43 3 -21 17 -97 31
-169 41 -217 52 -308 61 -485 3 -74 2 -79 -6 -40 -14 65 -16 70 -27 70 -7 0
-11 -79 -10 -222 0 -218 -6 -314 -37 -608 -13 -133 -53 -406 -75 -524 -5 -26
-7 -52 -4 -56 6 -9 -193 -195 -405 -379 -398 -346 -799 -639 -1185 -867 -319
-188 -873 -451 -1220 -580 -113 -41 -134 -53 -156 -84 -20 -27 -41 -41 -92
-58 l-65 -23 -198 -316 c-108 -174 -197 -321 -197 -327 0 -6 30 -63 65 -126
l65 -115 74 -3 c41 -2 308 4 594 14 465 15 1111 21 1122 10 5 -4 -127 -203
-205 -309 -80 -109 -205 -240 -299 -313 -104 -79 -115 -89 -90 -80 51 18 67
18 67 2 0 -9 3 -16 6 -16 12 0 112 60 124 75 14 17 40 20 40 6 0 -11 -38 -59
-88 -113 l-34 -36 135 48 c319 114 526 229 659 368 92 96 113 144 113 260 l0
93 65 -6 c36 -3 139 -10 230 -15 294 -19 883 -70 1435 -125 788 -78 812 -80
1205 -80 322 0 368 2 497 23 418 67 807 208 1165 420 106 63 381 247 484 323
l41 30 89 -25 c176 -50 281 -84 383 -125 146 -59 311 -138 311 -149 0 -5 -9
-17 -21 -28 -59 -53 -64 -138 -11 -202 l29 -37 -57 -55 c-54 -51 -59 -59 -65
-111 -12 -98 28 -155 149 -214 85 -41 263 -80 446 -96 134 -12 559 -6 599 9
21 7 19 9 -20 21 -64 19 -119 49 -119 65 0 8 -36 26 -87 44 -100 35 -186 72
-181 77 2 2 42 -11 88 -30 97 -39 330 -108 338 -100 3 3 0 5 -7 5 -7 0 -9 5
-6 10 3 6 17 10 30 10 17 0 23 4 19 14 -4 11 6 16 40 21 63 10 68 25 9 25 -97
0 -257 31 -359 71 -56 21 -106 39 -113 39 -6 0 -11 5 -11 12 0 6 -3 9 -6 6 -6
-7 -146 64 -287 144 -52 30 -106 53 -135 57 -39 6 -46 10 -44 26 2 11 6 38 8
60 9 78 -51 146 -141 159 -25 4 -45 9 -45 12 0 2 -18 75 -39 162 -62 246 -100
502 -101 679 l0 71 63 79 c224 277 331 481 392 748 6 26 18 -3 85 -195 241
-698 489 -1309 809 -1992 22 -49 46 -88 53 -88 7 0 69 -7 138 -15 141 -17 118
-25 190 69 31 41 39 45 76 46 41 0 43 2 145 128 229 281 561 658 917 1042
l181 195 -187 182 -187 182 -71 -77 c-69 -74 -73 -76 -91 -60 -18 17 -24 13
-143 -107 l-124 -125 -24 23 c-222 207 -682 1505 -1031 2907 -305 1220 -451
2251 -452 3183 -1 658 48 819 356 1171 52 61 95 113 95 117 0 7 -375 359 -381
359 -2 -1 -38 -32 -79 -70z m-1909 -320 c78 -40 228 -130 236 -143 3 -6 -7 -8
-26 -5 -40 6 -39 -2 6 -38 20 -16 46 -36 56 -45 38 -30 2 -27 -88 8 -49 19
-91 30 -93 24 -4 -12 -84 11 -165 46 -63 28 -143 107 -149 146 -2 16 5 26 27
37 42 21 116 10 196 -30z m-3184 -336 c-3 -3 -12 -4 -19 -1 -8 3 -5 6 6 6 11
1 17 -2 13 -5z m46 -11 c-7 -2 -19 -2 -25 0 -7 3 -2 5 12 5 14 0 19 -2 13 -5z
m18 -178 c-18 -8 -40 -15 -47 -15 -21 0 -17 -17 8 -34 21 -15 21 -16 4 -35
-10 -11 -27 -21 -37 -23 -13 -2 -16 -7 -10 -17 8 -12 12 -12 26 2 19 19 30 22
19 6 -4 -8 1 -9 17 -5 50 13 -15 -12 -100 -39 -99 -30 -232 -91 -297 -134 -51
-35 -76 -41 -49 -11 10 11 24 20 32 20 8 0 11 5 8 10 -4 7 -11 7 -18 2 -21
-16 -47 -9 -53 14 -8 33 -1 40 99 105 86 56 190 101 337 147 76 24 110 28 61
7z m740 -161 c29 -14 30 -17 15 -33 -18 -19 -12 -31 15 -31 22 0 31 -13 23
-35 -5 -12 -14 -14 -34 -10 -25 5 -28 4 -23 -14 7 -28 -34 -37 -89 -19 -34 11
-43 18 -41 35 2 13 -4 23 -17 26 -11 3 -20 13 -20 24 0 21 28 58 50 66 30 11
92 7 121 -9z m-1231 -178 c0 -2 -8 -10 -17 -17 -16 -13 -17 -12 -4 4 13 16 21
21 21 13z m1270 -171 c13 -14 30 -23 37 -21 24 10 55 -34 79 -112 21 -69 19
-85 -7 -71 -21 11 -21 10 -14 -69 4 -44 8 -86 8 -94 4 -30 -18 -21 -39 17 -14
25 -28 39 -39 37 -21 -4 -97 156 -103 218 -5 51 19 120 41 120 7 0 24 -11 37
-25z m-106 -141 c3 -8 2 -12 -4 -9 -6 3 -10 10 -10 16 0 14 7 11 14 -7z m586
-600 c66 -67 77 -82 50 -68 -42 23 -170 145 -170 162 0 22 30 -2 120 -94z
m-569 29 c13 -16 12 -17 -3 -4 -10 7 -18 15 -18 17 0 8 8 3 21 -13z m3257
-100 c-15 -200 -21 -770 -9 -953 21 -336 74 -754 139 -1108 16 -84 26 -155 22
-157 -12 -8 -652 13 -660 22 -4 4 -65 95 -134 201 -221 339 -478 695 -492 684
-5 -4 -2 2 7 13 696 870 1115 1383 1129 1384 3 1 2 -38 -2 -86z m-1148 -1337
c0 -2 -8 -10 -17 -17 -16 -13 -17 -12 -4 4 13 16 21 21 21 13z m-2093 -88 c-3
-8 -6 -5 -6 6 -1 11 2 17 5 13 3 -3 4 -12 1 -19z m-132 -70 c6 -5 5 -8 -2 -8
-18 0 -16 -26 3 -55 11 -17 26 -25 45 -25 15 0 30 -3 33 -8 2 -4 -2 -31 -10
-61 -7 -29 -15 -75 -17 -102 -2 -27 -6 -52 -9 -55 -6 -5 -32 89 -43 150 -6 34
-4 38 12 32 16 -5 15 -4 -2 11 -25 22 -45 86 -44 139 0 37 1 38 12 14 6 -14
16 -28 22 -32z m825 37 c11 -13 10 -14 -4 -9 -9 3 -16 10 -16 15 0 13 6 11 20
-6z m1310 11 c0 -2 -8 -10 -17 -17 -16 -13 -17 -12 -4 4 13 16 21 21 21 13z
m-1524 -31 c9 -8 11 -15 6 -15 -5 0 -15 7 -22 15 -7 8 -9 15 -6 15 4 0 14 -7
22 -15z m38 9 c9 -3 16 -12 16 -19 0 -7 16 -28 36 -47 19 -18 43 -46 51 -63 9
-16 29 -46 44 -66 43 -54 35 -57 -20 -8 -27 24 -60 52 -74 62 -30 20 -93 107
-78 107 5 0 21 -15 35 -32 25 -32 25 -32 18 -6 -4 15 -17 38 -29 52 -24 28
-24 30 1 20z m171 -14 c3 -5 1 -10 -4 -10 -6 0 -11 5 -11 10 0 6 2 10 4 10 3
0 8 -4 11 -10z m420 -10 c10 -11 16 -20 13 -20 -3 0 -13 9 -23 20 -10 11 -16
20 -13 20 3 0 13 -9 23 -20z m-335 -54 c0 -6 12 -22 26 -37 22 -23 43 -78 44
-116 0 -23 -18 -13 -28 15 -5 15 -28 48 -51 73 -22 26 -45 60 -51 75 -9 27 -9
28 5 10 22 -29 31 -11 10 21 l-18 28 31 -30 c17 -16 32 -34 32 -39z m-287 12
c9 3 9 -10 -1 -26 -6 -8 -15 -3 -31 19 l-23 31 24 -13 c12 -7 26 -12 31 -11z
m-495 -12 c-7 -8 -16 -12 -20 -9 -4 2 -5 -3 -2 -11 3 -9 1 -16 -5 -16 -7 0
-14 7 -18 16 -7 18 12 34 40 34 15 0 16 -2 5 -14z m837 -16 c10 -11 15 -20 11
-20 -14 0 -46 21 -46 30 0 16 16 11 35 -10z m-1849 -61 c6 -32 8 -59 4 -59 -4
0 -11 29 -16 65 -12 79 -3 75 12 -6z m2884 7 c0 -2 -8 -10 -17 -17 -16 -13
-17 -12 -4 4 13 16 21 21 21 13z m-1406 -22 c17 -6 23 -44 7 -44 -5 0 -16 11
-25 25 -16 25 -11 30 18 19z m1356 -38 c0 -2 -8 -10 -17 -17 -16 -13 -17 -12
-4 4 13 16 21 21 21 13z m-2811 -64 c1 -7 -3 -10 -9 -7 -5 3 -10 18 -9 33 0
24 1 25 9 7 5 -11 9 -26 9 -33z m1522 32 c6 -8 17 -14 24 -14 6 0 30 -12 51
-28 21 -15 50 -33 64 -40 14 -7 36 -22 50 -33 l25 -20 -40 17 c-22 9 -49 18
-60 21 -29 6 -91 -31 -87 -51 2 -11 -17 -1 -53 28 -31 25 -60 46 -64 46 -5 0
-18 15 -30 33 -18 28 -19 33 -5 43 21 17 111 15 125 -2z m1872 -38 c4 4 10 -2
14 -12 3 -10 24 -40 46 -66 22 -26 84 -116 138 -200 54 -84 102 -158 108 -165
18 -19 13 -23 -27 -23 -46 0 -53 8 -112 110 -24 41 -79 128 -122 193 -83 124
-101 156 -79 142 10 -6 11 -3 2 13 -16 30 -13 37 7 19 10 -10 22 -14 25 -11z
m-683 -50 c0 -2 -8 -10 -17 -17 -16 -13 -17 -12 -4 4 13 16 21 21 21 13z m178
-71 c-3 -3 -9 2 -12 12 -6 14 -5 15 5 6 7 -7 10 -15 7 -18z m-235 -8 c3 -7 -3
-13 -14 -13 -13 0 -15 3 -7 13 6 7 12 13 13 13 2 0 5 -6 8 -13z m-1080 -37 c3
-11 2 -18 -3 -15 -4 3 -10 14 -13 25 -3 11 -2 18 3 15 4 -3 10 -14 13 -25z
m1027 -14 c0 -2 -8 -10 -17 -17 -16 -13 -17 -12 -4 4 13 16 21 21 21 13z
m-1847 -46 c7 -29 1 -24 -17 11 -12 23 -12 28 -2 20 8 -7 16 -21 19 -31z m899
-17 l37 -20 -42 -51 c-23 -28 -46 -50 -52 -48 -5 1 -16 15 -24 31 -12 24 -12
34 -1 59 7 17 13 41 12 54 0 21 2 22 17 9 9 -8 33 -24 53 -34z m-553 -62 c47
-42 94 -86 105 -99 12 -13 41 -42 66 -65 24 -23 64 -61 88 -84 l44 -42 -53
-59 -53 -59 -36 56 c-40 61 -120 222 -120 239 0 6 -30 49 -66 94 -37 46 -72
89 -78 97 -21 28 17 -1 103 -78z m-355 4 c-7 -17 -8 -17 -21 1 -7 10 -13 27
-13 38 l0 20 20 -20 c14 -13 18 -27 14 -39z m1796 51 c0 -2 -8 -10 -17 -17
-16 -13 -17 -12 -4 4 13 16 21 21 21 13z m418 -48 c19 -19 14 -30 -8 -18 -11
6 -20 15 -20 20 0 14 14 12 28 -2z m-174 -70 c8 -24 17 -51 21 -60 6 -15 2
-18 -22 -18 l-30 0 -2 78 c-1 83 7 83 33 0z m-1994 10 c0 -16 -30 -8 -40 11
-7 14 -6 21 3 24 12 5 37 -19 37 -35z m1690 38 c0 -2 -8 -10 -17 -17 -16 -13
-17 -12 -4 4 13 16 21 21 21 13z m518 -41 c-3 -3 -9 2 -12 12 -6 14 -5 15 5 6
7 -7 10 -15 7 -18z m92 -72 l18 -23 -29 0 c-19 0 -28 4 -24 11 4 5 -1 19 -11
30 -10 11 -19 30 -21 42 -3 23 -5 25 67 -60z m-670 43 c0 -2 -8 -10 -17 -17
-16 -13 -17 -12 -4 4 13 16 21 21 21 13z m813 -63 c-7 -2 -21 -2 -30 0 -10 3
-4 5 12 5 17 0 24 -2 18 -5z m-2433 -23 c0 -5 -5 -10 -11 -10 -5 0 -7 5 -4 10
3 6 8 10 11 10 2 0 4 -4 4 -10z m-23 -42 c-3 -8 -6 -5 -6 6 -1 11 2 17 5 13 3
-3 4 -12 1 -19z m73 -183 c0 -8 -2 -15 -4 -15 -2 0 -6 7 -10 15 -3 8 -1 15 4
15 6 0 10 -7 10 -15z m300 -178 c0 -2 -12 -14 -27 -28 l-28 -24 24 28 c23 25
31 32 31 24z m-90 -101 c0 -2 -8 -10 -17 -17 -16 -13 -17 -12 -4 4 13 16 21
21 21 13z m3595 -606 c73 -276 176 -642 220 -781 6 -18 -1 -16 -50 19 l-56 41
-112 -54 c-62 -30 -116 -59 -120 -64 -5 -5 -19 -19 -30 -32 l-21 -23 -8 29
c-3 17 -21 104 -38 195 l-32 165 87 340 c48 187 89 350 92 363 3 13 7 22 8 20
2 -2 28 -100 60 -218z m-3345 -3 c0 -1 -30 -32 -67 -67 l-68 -65 65 68 c60 62
70 72 70 64z m-300 -290 c0 -2 -17 -19 -37 -38 l-38 -34 34 38 c33 34 41 42
41 34z m-90 -91 c0 -2 -8 -10 -17 -17 -16 -13 -17 -12 -4 4 13 16 21 21 21 13z
m-210 -200 c0 -2 -8 -10 -17 -17 -16 -13 -17 -12 -4 4 13 16 21 21 21 13z
m418 -794 c-6 -27 -23 -16 -26 18 -2 33 -2 34 13 15 9 -11 14 -26 13 -33z
m-1308 -35 c0 -2 -10 -12 -22 -23 l-23 -19 19 23 c18 21 26 27 26 19z m1404
-99 c-3 -5 -13 -3 -22 4 -10 7 -19 13 -21 15 -1 1 0 7 4 13 5 8 13 6 26 -6 10
-9 16 -21 13 -26z m-1511 0 c-11 -13 -32 -59 -48 -103 -91 -264 -271 -659
-385 -845 -76 -124 -199 -307 -218 -322 -8 -7 16 34 55 92 117 175 183 287
231 392 2 4 -148 9 -333 10 l-337 3 148 105 c348 244 615 446 799 603 104 89
122 102 88 65z m-688 -1320 c-55 -68 -201 -225 -225 -243 -26 -19 -1 9 153
178 89 96 124 128 72 65z m-311 -335 c4 -11 1 -22 -8 -29 -9 -6 -16 -18 -16
-27 0 -31 -57 -30 -93 2 -17 15 -17 16 -1 28 17 12 17 14 -2 28 -18 15 -18 16
6 13 14 -1 26 1 27 6 6 32 73 16 87 -21z m-228 -334 c5 -9 -36 -59 -49 -59 -2
0 -2 12 1 28 7 37 33 54 48 31z m6561 -26 c26 -15 57 -31 68 -37 35 -19 111
-74 124 -90 17 -21 6 -20 -64 4 -65 23 -79 24 -70 10 15 -25 -49 -2 -116 42
-47 30 -69 58 -47 58 6 0 8 3 5 7 -10 10 13 33 34 33 10 0 40 -12 66 -27z m89
-11 c-10 -2 -30 -1 -44 3 -25 7 -25 8 -7 15 11 4 31 2 44 -4 21 -9 22 -12 7
-14z m169 -90 c-3 -3 -11 0 -18 7 -9 10 -8 11 6 5 10 -3 15 -9 12 -12z"/>
<path d="M4377 8802 c-15 -2 -25 -8 -22 -13 11 -16 95 -8 95 10 0 7 -29 8 -73
3z"/>
<path d="M4010 8636 c0 -2 7 -7 16 -10 8 -3 12 -2 9 4 -6 10 -25 14 -25 6z"/>
<path d="M5665 5820 c3 -5 8 -10 11 -10 2 0 4 5 4 10 0 6 -5 10 -11 10 -5 0
-7 -4 -4 -10z"/>
<path d="M5710 5820 c0 -5 5 -10 11 -10 5 0 7 5 4 10 -3 6 -8 10 -11 10 -2 0
-4 -4 -4 -10z"/>
<path d="M5464 5234 c3 -9 6 -24 6 -35 0 -10 5 -19 10 -19 11 0 13 30 4 54 -3
9 -11 16 -16 16 -6 0 -7 -7 -4 -16z"/>
<path d="M5542 5209 c1 -12 8 -24 15 -26 7 -3 9 3 6 17 -8 29 -25 37 -21 9z"/>
<path d="M7171 9635 c14 -14 18 -14 45 0 l29 15 -45 0 c-40 0 -43 -2 -29 -15z"/>
<path d="M4272 5205 c0 -16 2 -22 5 -12 2 9 2 23 0 30 -3 6 -5 -1 -5 -18z"/>
<path d="M4270 5140 c0 -24 15 -27 24 -4 9 22 8 24 -9 24 -8 0 -15 -9 -15 -20z"/>
</g>
</svg>
