<?xml version="1.0" standalone="no"?>
<!DOCTYPE svg PUBLIC "-//W3C//DTD SVG 20010904//EN"
 "http://www.w3.org/TR/2001/REC-SVG-20010904/DTD/svg10.dtd">
<svg version="1.0" xmlns="http://www.w3.org/2000/svg"
 width="1635.000000pt" height="567.000000pt" viewBox="0 0 1635.000000 567.000000"
 preserveAspectRatio="xMidYMid meet">

<g transform="translate(0.000000,567.000000) scale(0.100000,-0.100000)"
fill="#000000" stroke="none">
<path d="M4147 5074 c-11 -14 -30 -29 -43 -34 -54 -21 -290 -345 -702 -965
-160 -242 -296 -441 -300 -443 -11 -3 -95 176 -127 269 -86 258 -87 453 -4
723 21 66 87 218 138 315 l23 45 13 -31 c7 -17 23 -34 34 -38 17 -5 21 -15 21
-49 0 -35 6 -48 38 -78 56 -56 100 -70 232 -75 63 -3 132 -1 154 4 l38 8 -28
15 c-36 19 -46 32 -31 42 8 5 8 8 1 8 -6 0 -22 10 -36 23 -23 20 -116 76 -222
135 -22 12 -49 20 -59 18 -13 -3 -21 4 -29 25 -11 31 -33 35 -33 5 0 -26 -25
-36 -45 -18 -10 8 -16 20 -14 26 10 27 -260 -12 -506 -74 -19 -4 -75 -18 -125
-30 -49 -11 -106 -25 -125 -30 -19 -5 -72 -12 -117 -16 l-83 -7 45 -49 c66
-73 55 -75 -18 -4 -34 33 -88 74 -119 91 l-57 30 -47 -45 c-110 -107 -194
-278 -225 -458 -15 -83 -5 -379 15 -477 8 -39 29 -120 46 -180 36 -120 37
-125 74 -270 22 -85 55 -257 56 -290 0 -5 5 -3 11 5 9 12 10 11 4 -5 -3 -11
-3 -49 1 -85 6 -50 9 -59 15 -40 4 14 7 19 8 12 1 -6 8 -57 16 -112 13 -84 13
-136 5 -313 -6 -117 -19 -290 -30 -386 -24 -208 -4 -176 -274 -447 -275 -275
-485 -431 -781 -581 -82 -42 -154 -82 -158 -89 -4 -8 -21 -21 -37 -29 -22 -12
-47 -51 -109 -171 l-80 -157 30 -65 29 -65 52 6 c85 10 668 21 668 13 0 -13
-70 -136 -113 -201 -22 -33 -60 -79 -83 -102 -32 -32 -38 -43 -25 -46 9 -2 31
7 48 20 40 29 42 21 7 -24 l-26 -34 36 15 c20 9 53 23 73 32 92 40 221 151
243 210 6 14 10 48 10 75 l0 50 68 -6 c185 -17 478 -48 652 -70 293 -37 455
-46 571 -34 244 25 471 133 688 327 l69 62 63 -21 c55 -18 208 -91 248 -117
11 -8 11 -14 1 -33 -16 -29 -15 -76 1 -95 10 -12 8 -19 -10 -38 -13 -13 -25
-41 -28 -63 -13 -99 109 -153 348 -153 127 0 150 6 107 25 -33 15 -36 37 -4
29 18 -4 33 -1 44 9 9 8 24 16 32 19 8 3 -13 8 -47 11 -68 7 -153 46 -258 116
-33 23 -66 41 -72 41 -9 0 -13 15 -13 43 0 46 -21 77 -53 77 -9 0 -19 10 -22
22 -23 99 -36 185 -46 301 l-12 135 55 93 c61 104 102 199 119 280 l12 53 52
-184 c69 -239 170 -549 253 -772 l66 -178 35 -5 c20 -4 45 -8 56 -10 14 -3 27
6 43 30 12 19 28 35 36 35 8 0 65 73 126 163 62 89 171 240 242 335 l128 173
-61 72 c-94 111 -84 105 -114 69 -15 -18 -33 -32 -40 -32 -7 0 -32 -25 -56
-54 -24 -30 -48 -54 -54 -52 -19 5 -83 147 -129 284 -117 354 -268 985 -350
1462 -87 502 -119 836 -120 1235 -1 370 11 424 131 593 25 35 43 68 40 75 -7
17 -138 167 -146 167 -3 0 -14 -12 -24 -26z m-762 -171 c60 -40 104 -78 80
-69 -16 6 -13 0 10 -25 17 -17 23 -29 15 -26 -8 3 -45 15 -82 27 -46 14 -74
30 -92 51 -56 66 -9 95 69 42z m-1260 -257 c-19 -8 -25 -15 -17 -20 21 -13 -6
-46 -55 -67 -25 -11 -59 -29 -75 -40 -28 -20 -31 -21 -46 -5 -16 16 -15 19 18
47 39 32 167 99 190 98 8 0 2 -6 -15 -13z m300 -86 c0 -8 6 -19 13 -23 7 -5
10 -13 7 -18 -4 -5 -10 -7 -15 -4 -4 3 -10 -1 -13 -9 -7 -18 -47 -9 -47 9 0 7
-5 15 -11 17 -9 3 -9 10 0 27 9 16 20 21 39 19 16 -2 27 -9 27 -18z m53 -208
c5 -16 6 -56 2 -92 -4 -36 -8 -57 -9 -47 0 10 -7 20 -15 23 -30 12 -62 145
-40 167 11 11 52 -23 62 -51z m163 -337 c5 -11 -6 -2 -26 19 -19 22 -35 44
-35 50 0 12 45 -39 61 -69z m1061 -212 c-5 -252 10 -488 48 -753 10 -74 16
-138 12 -141 -4 -3 -77 -2 -162 1 -85 4 -152 7 -147 8 4 1 -16 48 -45 105 -29
56 -53 109 -54 117 -4 24 32 -25 76 -106 23 -41 43 -74 46 -74 6 0 -16 42 -73
143 -24 42 -55 99 -70 125 -14 26 -38 67 -53 91 l-28 44 94 143 c136 209 354
534 357 534 2 0 2 -107 -1 -237z m-1079 -556 c-4 -6 0 -8 10 -4 12 4 17 1 17
-11 0 -10 7 -27 15 -38 26 -35 16 -38 -15 -4 -16 18 -30 37 -30 41 0 5 -7 6
-15 3 -18 -7 -20 7 -3 24 9 9 9 12 0 12 -7 0 -12 5 -12 12 0 6 8 3 20 -7 11
-10 17 -22 13 -28z m-276 1 c-3 -7 -5 -2 -5 12 0 14 2 19 5 13 2 -7 2 -19 0
-25z m348 22 c3 -5 1 -10 -4 -10 -6 0 -11 5 -11 10 0 6 2 10 4 10 3 0 8 -4 11
-10z m-304 -69 c-6 -11 -11 -31 -11 -45 0 -14 -4 -26 -10 -26 -5 0 -10 8 -10
19 0 10 -3 34 -6 52 -6 28 -4 32 7 22 18 -18 29 -16 30 5 0 9 3 12 5 5 3 -7 1
-21 -5 -32z m339 29 c8 -5 12 -10 8 -10 -4 0 -3 -14 2 -31 11 -37 10 -36 -24
14 -25 36 -18 48 14 27z m-130 -55 c0 -8 5 -15 11 -15 5 0 7 -5 3 -12 -4 -6
-3 -8 3 -5 6 4 20 -1 32 -11 l20 -17 -23 -17 c-22 -16 -24 -15 -56 15 -30 28
-31 31 -15 43 9 7 14 17 10 23 -3 6 -1 11 4 11 6 0 11 -7 11 -15z m-107 -243
l75 -88 -23 -28 -22 -28 -32 75 c-17 42 -31 78 -31 82 0 3 -12 22 -26 41 -50
65 -15 33 59 -54z m181 79 c3 -5 -3 -20 -14 -32 l-19 -24 -1 33 c0 31 21 45
34 23z m-350 -44 c5 -21 4 -21 -14 3 -23 29 -26 48 -6 31 8 -6 16 -22 20 -34z
m811 -36 c3 -6 -1 -11 -9 -11 -12 0 -16 10 -15 38 1 34 1 35 9 10 4 -14 11
-31 15 -37z m100 18 c11 -17 -1 -21 -15 -4 -8 9 -8 15 -2 15 6 0 14 -5 17 -11z
m-1178 -271 c-3 -7 -5 -2 -5 12 0 14 2 19 5 13 2 -7 2 -19 0 -25z m1803 -245
c0 -15 73 -348 96 -438 7 -29 7 -30 -17 -14 -22 15 -26 14 -71 -13 -27 -16
-48 -34 -48 -39 0 -6 -4 -8 -8 -5 -5 3 -15 52 -22 109 -12 102 -12 105 20 260
18 86 37 157 41 157 5 0 9 -8 9 -17z m-1340 -97 c0 -2 -8 -10 -17 -17 -16 -13
-17 -12 -4 4 13 16 21 21 21 13z m-110 -129 c0 -2 -10 -12 -22 -23 l-23 -19
19 23 c18 21 26 27 26 19z m-460 -531 c0 -2 -8 -10 -17 -17 -16 -13 -17 -12
-4 4 13 16 21 21 21 13z m-60 -73 c-5 -10 -21 -58 -36 -108 -14 -49 -42 -132
-61 -182 l-36 -93 -146 0 -146 1 35 31 c159 141 294 265 340 312 59 60 65 66
50 39z m-167 -458 c-3 -9 -8 -14 -10 -11 -3 3 -2 9 2 15 9 16 15 13 8 -4z
m-239 -343 c3 -5 2 -19 -1 -31 -7 -27 -38 -24 -38 4 -1 28 27 46 39 27z m-92
-194 c-7 -7 -12 -8 -12 -2 0 14 12 26 19 19 2 -3 -1 -11 -7 -17z m2660 8 c6 4
8 3 5 -3 -3 -5 7 -20 24 -33 28 -24 41 -49 17 -34 -6 4 -21 8 -33 10 -20 2
-75 31 -75 39 0 2 3 10 6 19 5 12 10 13 25 5 11 -5 25 -7 31 -3z"/>
<path d="M2068 4613 c6 -2 18 -2 25 0 6 3 1 5 -13 5 -14 0 -19 -2 -12 -5z"/>
<path d="M3480 2941 c0 -6 4 -13 10 -16 6 -3 7 1 4 9 -7 18 -14 21 -14 7z"/>
<path d="M2511 2854 c0 -11 3 -14 6 -6 3 7 2 16 -1 19 -3 4 -6 -2 -5 -13z"/>
<path d="M3200 5029 c0 -5 5 -7 10 -4 6 3 10 8 10 11 0 2 -4 4 -10 4 -5 0 -10
-5 -10 -11z"/>
<path d="M3638 4773 c7 -3 16 -2 19 1 4 3 -2 6 -13 5 -11 0 -14 -3 -6 -6z"/>
<path d="M5945 3408 c-3 -7 -90 -494 -194 -1083 -172 -974 -187 -1072 -173
-1087 14 -17 56 -18 613 -18 l599 0 5 23 c3 12 14 72 24 132 18 100 18 112 4
128 -15 16 -50 17 -465 17 -246 0 -448 3 -448 8 0 4 74 423 164 932 150 844
163 927 148 943 -13 14 -34 17 -144 17 -94 0 -130 -3 -133 -12z"/>
<path d="M7892 3363 c-116 -231 -1002 -2093 -1002 -2105 0 -33 25 -39 166 -36
l138 3 141 300 141 300 346 3 347 2 6 -42 c4 -24 23 -160 43 -303 l38 -260
131 -3 c123 -2 133 -1 143 17 8 16 -25 272 -140 1096 -82 592 -150 1078 -150
1081 0 2 -72 4 -160 4 l-160 0 -28 -57z m203 -972 c20 -150 34 -275 32 -277
-2 -3 -119 -3 -259 -2 l-255 3 143 305 c79 168 161 346 183 395 22 50 50 113
62 140 l22 50 18 -170 c10 -93 34 -293 54 -444z"/>
<path d="M9185 3399 c-3 -13 -90 -501 -194 -1084 -170 -958 -187 -1062 -173
-1077 14 -17 44 -18 366 -18 487 0 581 12 751 95 117 57 207 132 299 252 200
260 305 581 306 938 0 491 -190 814 -528 892 -52 12 -154 16 -444 20 l-377 5
-6 -23z m798 -308 c106 -42 192 -155 233 -306 25 -95 30 -346 10 -483 -39
-266 -170 -540 -315 -661 -56 -47 -136 -86 -207 -102 -52 -11 -554 -25 -554
-15 0 3 63 359 140 791 77 433 140 791 140 797 0 6 82 8 248 6 229 -4 251 -6
305 -27z"/>
<path d="M11075 3388 c-25 -110 -374 -2127 -369 -2140 5 -17 44 -18 710 -18
387 0 704 1 704 3 1 1 11 59 24 129 16 88 20 130 12 138 -7 7 -193 10 -563 10
-436 0 -553 3 -553 13 0 6 27 165 60 352 33 187 60 341 60 342 0 2 233 4 517
5 l518 3 22 124 c17 92 20 128 12 138 -9 10 -106 13 -510 13 -274 0 -500 3
-502 8 -4 6 9 87 88 530 l17 92 529 0 529 0 5 23 c23 97 41 234 33 245 -8 9
-155 12 -674 12 l-664 0 -5 -22z"/>
<path d="M12825 3388 c-25 -110 -374 -2127 -369 -2140 5 -17 44 -18 710 -18
387 0 704 1 704 3 1 1 11 59 24 129 16 88 20 130 12 138 -7 7 -193 10 -563 10
-436 0 -553 3 -553 13 0 6 27 165 60 352 33 187 60 341 60 342 0 2 233 4 517
5 l518 3 22 124 c17 92 20 128 12 138 -9 10 -106 13 -510 13 -274 0 -500 3
-502 8 -4 6 9 87 88 530 l17 92 529 0 529 0 5 23 c23 97 41 234 33 245 -8 9
-155 12 -674 12 l-664 0 -5 -22z"/>
<path d="M14586 3393 c-17 -58 -377 -2135 -373 -2148 5 -12 29 -15 142 -15 74
0 135 2 135 4 0 2 58 334 129 738 71 403 134 774 141 823 19 144 19 144 75
-30 28 -88 161 -469 295 -848 l244 -688 145 3 145 3 188 1060 c103 583 187
1071 185 1085 l-2 25 -137 3 c-76 1 -138 0 -138 -4 0 -3 -56 -324 -125 -713
-68 -388 -134 -767 -145 -841 -12 -74 -22 -136 -24 -137 -2 -2 -13 36 -25 84
-40 154 -185 572 -380 1098 l-189 510 -140 3 c-127 2 -141 1 -146 -15z"/>
<path d="M2012 3015 c0 -16 2 -22 5 -12 2 9 2 23 0 30 -3 6 -5 -1 -5 -18z"/>
</g>
</svg>
